# xmcd
#
# Track frame offsets:
# 150
# 13603
# 33359
# 53636
# 79565
# 98659
# 117786
# 136100
# 153244
# 174097
# 192062
# 211685
# 226761
# 245097
# 263770
#
# Disc length: 3764 seconds
#
#
# Revision: 0
# Processed by: cddbd v1.5.2PL0 Copyright (c) Steve Scherf et al.
# Submitted via: FreeRIP 2.951 
#
DISCID=a60eb20f
DTITLE=Zezé di Camargo e Luciano - Ao Vivo - disco #1 
DYEAR=2000
DGENRE=Sertanejo
TTITLE0=Abertura
TTITLE1=Vem Ficar Comigo
TTITLE2=Vivendo por viver
TTITLE3=Pão de mel
TTITLE4=Pare!
TTITLE5=Como um anjo
TTITLE6=Dois corações e uma história
TTITLE7=Pior é te perder
TTITLE8=Indiferença
TTITLE9=Tá escrito em meu olhar
TTITLE10=É o amor
TTITLE11=Preciso ser amado
TTITLE12=Sem medo de ser feliz
TTITLE13=Eu só penso em você
TTITLE14=Da boca pra fora
EXTD=
EXTT0=
EXTT1=
EXTT2=
EXTT3=
EXTT4=
EXTT5=
EXTT6=
EXTT7=
EXTT8=
EXTT9=
EXTT10=
EXTT11=
EXTT12=
EXTT13=
EXTT14=
PLAYORDER=
